<mxfile host="app.diagrams.net" agent="Mozilla/5.0 (Windows NT 10.0; Win64; x64) AppleWebKit/537.36 (KHTML, like Gecko) Chrome/132.0.0.0 Safari/537.36" version="26.0.10">
  <diagram name="PÃ¡gina-1" id="Eytlk_36S796nTMawIgF">
    <mxGraphModel dx="1136" dy="585" grid="1" gridSize="10" guides="1" tooltips="1" connect="1" arrows="1" fold="1" page="1" pageScale="1" pageWidth="827" pageHeight="1169" math="0" shadow="0">
      <root>
        <mxCell id="0" />
        <mxCell id="1" parent="0" />
        <mxCell id="zZgF9IngARe3-gKikm3L-20" value="ConcreteDecoratorA" style="swimlane;whiteSpace=wrap;html=1;swimlaneLine=1;rounded=0;shadow=0;" parent="1" vertex="1">
          <mxGeometry x="145" y="380" width="150" height="140" as="geometry" />
        </mxCell>
        <mxCell id="shi2ZC6vJrufgKta5fBi-13" value="&lt;div&gt;Component wrappedObj&lt;/div&gt;&lt;div&gt;&lt;br&gt;&lt;/div&gt;methodA()&lt;div&gt;methodB()&lt;br&gt;newBehavior()&lt;/div&gt;&lt;div&gt;//other methods&lt;/div&gt;" style="text;html=1;align=left;verticalAlign=top;whiteSpace=wrap;rounded=0;" parent="zZgF9IngARe3-gKikm3L-20" vertex="1">
          <mxGeometry x="7.5" y="30" width="135" height="100" as="geometry" />
        </mxCell>
        <mxCell id="zZgF9IngARe3-gKikm3L-27" value="" style="endArrow=block;html=1;rounded=0;curved=0;endFill=0;dashed=1;" parent="1" edge="1">
          <mxGeometry width="50" height="50" relative="1" as="geometry">
            <mxPoint x="120" y="220" as="sourcePoint" />
            <mxPoint x="200" y="150" as="targetPoint" />
          </mxGeometry>
        </mxCell>
        <mxCell id="shi2ZC6vJrufgKta5fBi-2" value="" style="endArrow=block;html=1;rounded=0;curved=0;endFill=0;dashed=1;" parent="1" edge="1">
          <mxGeometry width="50" height="50" relative="1" as="geometry">
            <mxPoint x="320" y="220" as="sourcePoint" />
            <mxPoint x="240" y="150" as="targetPoint" />
          </mxGeometry>
        </mxCell>
        <mxCell id="shi2ZC6vJrufgKta5fBi-3" value="Decorator" style="swimlane;whiteSpace=wrap;html=1;" parent="1" vertex="1">
          <mxGeometry x="260" y="220" width="120" height="90" as="geometry" />
        </mxCell>
        <mxCell id="shi2ZC6vJrufgKta5fBi-4" value="methodA()&lt;div&gt;methodB()&lt;/div&gt;&lt;div&gt;//other methods&lt;/div&gt;" style="text;html=1;align=left;verticalAlign=middle;whiteSpace=wrap;rounded=0;" parent="shi2ZC6vJrufgKta5fBi-3" vertex="1">
          <mxGeometry x="10" y="30" width="100" height="50" as="geometry" />
        </mxCell>
        <mxCell id="shi2ZC6vJrufgKta5fBi-5" style="edgeStyle=orthogonalEdgeStyle;rounded=0;orthogonalLoop=1;jettySize=auto;html=1;exitX=0.5;exitY=1;exitDx=0;exitDy=0;" parent="shi2ZC6vJrufgKta5fBi-3" source="shi2ZC6vJrufgKta5fBi-4" target="shi2ZC6vJrufgKta5fBi-4" edge="1">
          <mxGeometry relative="1" as="geometry" />
        </mxCell>
        <mxCell id="shi2ZC6vJrufgKta5fBi-6" value="ConcreteComponent" style="swimlane;whiteSpace=wrap;html=1;" parent="1" vertex="1">
          <mxGeometry x="60" y="220" width="120" height="90" as="geometry" />
        </mxCell>
        <mxCell id="shi2ZC6vJrufgKta5fBi-7" value="methodA()&lt;div&gt;methodB()&lt;/div&gt;&lt;div&gt;//other methods&lt;/div&gt;" style="text;html=1;align=left;verticalAlign=middle;whiteSpace=wrap;rounded=0;" parent="shi2ZC6vJrufgKta5fBi-6" vertex="1">
          <mxGeometry x="10" y="30" width="100" height="50" as="geometry" />
        </mxCell>
        <mxCell id="shi2ZC6vJrufgKta5fBi-8" style="edgeStyle=orthogonalEdgeStyle;rounded=0;orthogonalLoop=1;jettySize=auto;html=1;exitX=0.5;exitY=1;exitDx=0;exitDy=0;" parent="shi2ZC6vJrufgKta5fBi-6" source="shi2ZC6vJrufgKta5fBi-7" target="shi2ZC6vJrufgKta5fBi-7" edge="1">
          <mxGeometry relative="1" as="geometry" />
        </mxCell>
        <mxCell id="shi2ZC6vJrufgKta5fBi-9" value="" style="endArrow=block;html=1;rounded=0;curved=0;endFill=0;" parent="1" edge="1">
          <mxGeometry width="50" height="50" relative="1" as="geometry">
            <mxPoint x="220" y="380" as="sourcePoint" />
            <mxPoint x="300" y="310" as="targetPoint" />
          </mxGeometry>
        </mxCell>
        <mxCell id="shi2ZC6vJrufgKta5fBi-10" value="" style="endArrow=block;html=1;rounded=0;curved=0;endFill=0;" parent="1" edge="1">
          <mxGeometry width="50" height="50" relative="1" as="geometry">
            <mxPoint x="420" y="380" as="sourcePoint" />
            <mxPoint x="340" y="310" as="targetPoint" />
          </mxGeometry>
        </mxCell>
        <mxCell id="shi2ZC6vJrufgKta5fBi-11" value="ConcreteDecoratorB" style="swimlane;whiteSpace=wrap;html=1;" parent="1" vertex="1">
          <mxGeometry x="343.5" y="380" width="150" height="140" as="geometry" />
        </mxCell>
        <mxCell id="shi2ZC6vJrufgKta5fBi-14" value="&lt;div&gt;Component wrappedObj&lt;br&gt;Object newState&lt;/div&gt;&lt;div&gt;&lt;br&gt;&lt;/div&gt;methodA()&lt;div&gt;methodB()&lt;br&gt;newBehavior()&lt;/div&gt;&lt;div&gt;//other methods&lt;/div&gt;" style="text;html=1;align=left;verticalAlign=top;whiteSpace=wrap;rounded=0;" parent="shi2ZC6vJrufgKta5fBi-11" vertex="1">
          <mxGeometry x="7.5" y="30" width="135" height="100" as="geometry" />
        </mxCell>
        <mxCell id="shi2ZC6vJrufgKta5fBi-15" value="" style="curved=1;endArrow=block;html=1;rounded=0;exitX=1.007;exitY=0.12;exitDx=0;exitDy=0;exitPerimeter=0;endFill=1;entryX=0.997;entryY=0.221;entryDx=0;entryDy=0;entryPerimeter=0;" parent="1" source="shi2ZC6vJrufgKta5fBi-3" target="2nX7e3DCtPEc7ZFAwngx-1" edge="1">
          <mxGeometry width="50" height="50" relative="1" as="geometry">
            <mxPoint x="493.5" y="100" as="sourcePoint" />
            <mxPoint x="300" y="50" as="targetPoint" />
            <Array as="points">
              <mxPoint x="480" y="220" />
              <mxPoint x="520" y="170" />
              <mxPoint x="500" y="110" />
              <mxPoint x="410" y="50" />
            </Array>
          </mxGeometry>
        </mxCell>
        <mxCell id="shi2ZC6vJrufgKta5fBi-16" value="" style="rounded=0;whiteSpace=wrap;html=1;fillColor=none;" parent="1" vertex="1">
          <mxGeometry x="40" y="10" width="490" height="510" as="geometry" />
        </mxCell>
        <mxCell id="2nX7e3DCtPEc7ZFAwngx-1" value="&amp;lt;&amp;lt;interface&amp;gt;&amp;gt;&lt;div&gt;&lt;font style=&quot;font-size: 14px;&quot;&gt;Component&lt;/font&gt;&lt;/div&gt;" style="swimlane;whiteSpace=wrap;html=1;startSize=40;" vertex="1" parent="1">
          <mxGeometry x="145" y="30" width="150" height="120" as="geometry">
            <mxRectangle x="310" y="160" width="110" height="40" as="alternateBounds" />
          </mxGeometry>
        </mxCell>
        <mxCell id="2nX7e3DCtPEc7ZFAwngx-5" value="methodA()&lt;div&gt;methodB()&lt;/div&gt;&lt;div&gt;//other methods&lt;/div&gt;" style="text;html=1;align=left;verticalAlign=middle;whiteSpace=wrap;rounded=0;" vertex="1" parent="2nX7e3DCtPEc7ZFAwngx-1">
          <mxGeometry x="15" y="50" width="100" height="50" as="geometry" />
        </mxCell>
      </root>
    </mxGraphModel>
  </diagram>
</mxfile>
